<svg width="38" height="39" viewBox="0 0 38 39" fill="none" xmlns="http://www.w3.org/2000/svg">
<path d="M20.5833 14.75L25.3333 19.5M25.3333 19.5L20.5833 24.25M25.3333 19.5H12.6667M33.25 19.5C33.25 21.3713 32.8814 23.2243 32.1653 24.9532C31.4492 26.6821 30.3995 28.253 29.0763 29.5763C27.753 30.8995 26.1821 31.9492 24.4532 32.6653C22.7243 33.3814 20.8713 33.75 19 33.75C17.1287 33.75 15.2757 33.3814 13.5468 32.6653C11.8179 31.9492 10.247 30.8995 8.92373 29.5763C7.60049 28.253 6.55085 26.6821 5.83472 24.9532C5.11859 23.2243 4.75 21.3713 4.75 19.5C4.75 15.7207 6.25133 12.0961 8.92373 9.42373C11.5961 6.75134 15.2207 5.25 19 5.25C22.7793 5.25 26.4039 6.75134 29.0763 9.42373C31.7487 12.0961 33.25 15.7207 33.25 19.5Z" stroke="#D5D5D5" stroke-width="2" stroke-linecap="round" stroke-linejoin="round"/>
</svg>
